<svg width="88" height="840" viewBox="0 0 88 840" fill="none" xmlns="http://www.w3.org/2000/svg">
<path d="M64.9273 787.657C68.8217 789.541 74.4734 797.054 76.8125 800.574C79.841 805.133 84.1198 800.202 83.072 795.633C82.1283 791.517 73.2728 780.747 63.7581 778.233C54.2433 775.719 48.072 781.133 47.072 782.133C43.4785 785.726 49.3115 790.253 52.362 787.698C55.4126 785.143 60.0593 785.301 64.9273 787.657Z" fill="#FFB7B7"/>
<path d="M20.1073 1.00005C7.04243 126.935 48.0112 410.906 37.6556 720.566" stroke="black" stroke-width="2"/>
<path d="M38.0922 724.107C38.0922 724.107 35.2997 738.57 34.2121 741.334C33.1245 744.098 28.5212 756.761 28.5212 756.761L22.3131 771.931L17.1395 784.787L14.8115 797.386L14.8115 806.128L15.8462 814.87L17.1395 823.355C17.1395 823.355 21.7428 829.205 23.8651 830.298C25.9874 831.39 30.5377 834.669 32.1427 834.669C33.7476 834.669 41.4549 834.669 41.4549 834.669C41.4549 834.669 47.1987 833.447 47.9218 833.126C48.6449 832.805 53.4069 828.048 54.9589 825.476C55.8261 824.04 56.6126 821.88 57.1378 820.255C58.5698 815.822 59.2858 813.606 59.3171 813.511C59.3483 813.416 58.0113 817.403 58.5461 815.808L58.5803 815.706L59.3564 813.392L59.8737 808.764L60.6497 802.336L61.1671 795.393" stroke="#C0C0C0" stroke-width="9"/>
<path d="M68.5778 768.076L58.2523 786.79L53.3375 795.789L48.6814 805.302L65.7539 796.303L66.0125 790.646L67.3059 778.819L68.5778 768.076Z" fill="#7E7E7E"/>
<circle cx="5.5" cy="5.5" r="5.5" transform="matrix(-1 0 0 1 43 718)" fill="#7E7E7E"/>
<circle cx="2.5" cy="2.5" r="2.5" transform="matrix(-1 0 0 1 40 721)" fill="black"/>
</svg>
