<svg width="63" height="495" viewBox="0 0 63 495" fill="none" xmlns="http://www.w3.org/2000/svg">
<path d="M10.4516 -342.066C-2.61321 -216.131 38.3555 67.8403 28 377.5" stroke="black" stroke-width="2"/>
<path d="M28.0922 379.107C28.0922 379.107 25.2997 393.57 24.2121 396.334C23.1245 399.098 18.5212 411.761 18.5212 411.761L12.3131 426.931L7.13954 439.787L4.81154 452.386L4.81153 461.128L5.8462 469.87L7.13954 478.355C7.13954 478.355 11.7428 484.205 13.8651 485.298C15.9874 486.39 20.5377 489.669 22.1427 489.669C23.7476 489.669 31.4549 489.669 31.4549 489.669C31.4549 489.669 37.1987 488.447 37.9218 488.126C38.6449 487.805 43.4069 483.048 44.9589 480.477C45.8261 479.04 46.6126 476.881 47.1378 475.255C48.5698 470.822 49.2858 468.606 49.3171 468.511C49.3483 468.416 48.0113 472.403 48.5461 470.808L48.5803 470.706L49.3564 468.392L49.8737 463.764L50.6497 457.336L51.1671 450.393" stroke="#C0C0C0" stroke-width="9"/>
<path d="M58.5778 423.076L48.2523 441.79L43.3375 450.789L38.6814 460.302L55.7539 451.303L56.0125 445.646L57.3059 433.819L58.5778 423.076Z" fill="#7E7E7E"/>
<circle cx="5.5" cy="5.5" r="5.5" transform="matrix(-1 0 0 1 33 373)" fill="#7E7E7E"/>
<circle cx="2.5" cy="2.5" r="2.5" transform="matrix(-1 0 0 1 30 376)" fill="black"/>
</svg>
